<svg xmlns="http://www.w3.org/2000/svg" xmlns:xlink="http://www.w3.org/1999/xlink" width="777" zoomAndPan="magnify" viewBox="0 0 582.75 74.999997" height="100" preserveAspectRatio="xMidYMid meet" version="1.0"><defs><g/><clipPath id="7f3708cc01"><path d="M 20 45 L 77 45 L 77 65.671875 L 20 65.671875 Z M 20 45 " clip-rule="nonzero"/></clipPath><clipPath id="56b8e30070"><path d="M 20 9.421875 L 77 9.421875 L 77 33 L 20 33 Z M 20 9.421875 " clip-rule="nonzero"/></clipPath><clipPath id="8ba5f226fc"><path d="M 76 34 L 114 34 L 114 47 L 76 47 Z M 76 34 " clip-rule="nonzero"/></clipPath><clipPath id="91f8bb08ef"><path d="M 76 26 L 114 26 L 114 38 L 76 38 Z M 76 26 " clip-rule="nonzero"/></clipPath><clipPath id="1bf86e4ebb"><path d="M 76 43 L 114 43 L 114 55 L 76 55 Z M 76 43 " clip-rule="nonzero"/></clipPath><clipPath id="7c3fa4c9bf"><path d="M 7.5 40 L 21 40 L 21 47 L 7.5 47 Z M 7.5 40 " clip-rule="nonzero"/></clipPath><clipPath id="958e719275"><path d="M 7.5 32 L 21 32 L 21 38 L 7.5 38 Z M 7.5 32 " clip-rule="nonzero"/></clipPath><clipPath id="d9079d9455"><path d="M 7.5 49 L 21 49 L 21 55 L 7.5 55 Z M 7.5 49 " clip-rule="nonzero"/></clipPath></defs><path fill="#1649ff" d="M 53.347656 36.960938 C 50.289062 36.59375 47.222656 36.492188 44.148438 36.644531 C 42.078125 36.804688 40.023438 37.078125 37.984375 37.457031 C 37.609375 37.527344 37.214844 37.613281 36.746094 37.726562 L 36.507812 37.785156 C 33.539062 38.535156 30.761719 39.796875 27.5 41.460938 C 25.097656 42.6875 22.601562 43.671875 20.007812 44.414062 L 20.007812 49.125 C 22.324219 48.367188 24.558594 47.414062 26.714844 46.269531 C 30.261719 44.402344 34.011719 43.09375 37.953125 42.347656 C 39.058594 42.121094 40.167969 41.953125 41.289062 41.839844 L 41.332031 41.835938 C 43.316406 41.609375 45.304688 41.503906 47.300781 41.511719 C 54.835938 41.464844 61.320312 42.953125 67.171875 46.042969 C 70.074219 47.582031 73.113281 48.785156 76.289062 49.644531 L 76.289062 44.945312 C 72.84375 44.085938 69.535156 42.871094 66.355469 41.296875 C 62.417969 39.363281 58.117188 37.5 53.347656 36.960938 Z M 53.347656 36.960938 " fill-opacity="1" fill-rule="nonzero"/><path fill="#1649ff" d="M 46.875 27.992188 C 46.457031 27.996094 46.0625 27.996094 45.660156 28.007812 L 44.886719 28.039062 C 43.652344 28.105469 42.355469 28.226562 41.035156 28.398438 C 39.179688 28.660156 37.351562 29.050781 35.554688 29.570312 C 32.957031 30.382812 30.457031 31.421875 28.046875 32.683594 C 25.472656 34.015625 22.789062 35.085938 20.007812 35.894531 L 20.007812 40.535156 C 21.46875 40.046875 22.929688 39.476562 24.386719 38.828125 C 25.203125 38.460938 26.03125 38.074219 26.832031 37.695312 C 29.410156 36.480469 32.078125 35.222656 34.949219 34.511719 C 36.035156 34.242188 37.140625 34.003906 38.234375 33.796875 C 39.046875 33.644531 39.902344 33.503906 40.773438 33.386719 C 44.074219 32.925781 47.386719 32.808594 50.710938 33.042969 C 53.742188 33.234375 56.707031 33.773438 59.609375 34.660156 L 59.957031 34.765625 C 60.183594 34.835938 60.410156 34.90625 60.636719 34.976562 L 60.921875 35.070312 C 63.964844 36.097656 66.929688 37.300781 69.824219 38.6875 C 71.917969 39.660156 74.070312 40.464844 76.289062 41.105469 L 76.289062 36.386719 C 72.234375 35.410156 68.367188 33.945312 64.6875 31.992188 C 59.566406 29.304688 53.738281 27.996094 46.875 27.992188 Z M 46.875 27.992188 " fill-opacity="1" fill-rule="nonzero"/><g clip-path="url(#7f3708cc01)"><path fill="#1649ff" d="M 42.988281 45.261719 C 42.589844 45.292969 42.191406 45.332031 41.796875 45.375 C 37.183594 45.929688 32.625 47.386719 27.878906 49.820312 C 25.359375 51.117188 22.734375 52.15625 20.007812 52.9375 L 20.007812 65.648438 L 76.289062 65.648438 L 76.289062 53.515625 C 72.828125 52.699219 69.21875 51.300781 65.066406 49.195312 C 58.582031 45.90625 51.355469 44.621094 42.988281 45.261719 Z M 42.988281 45.261719 " fill-opacity="1" fill-rule="nonzero"/></g><g clip-path="url(#56b8e30070)"><path fill="#1649ff" d="M 20.007812 9.457031 L 20.007812 32.121094 C 22.207031 31.402344 24.332031 30.496094 26.375 29.40625 C 29.078125 27.964844 31.90625 26.84375 34.867188 26.042969 C 36 25.710938 37.148438 25.445312 38.3125 25.253906 L 38.589844 25.210938 C 40.1875 24.933594 41.796875 24.738281 43.414062 24.628906 C 52.125 23.925781 59.785156 25.292969 66.824219 28.808594 C 69.796875 30.292969 72.941406 31.789062 76.289062 32.707031 L 76.289062 9.457031 Z M 20.007812 9.457031 " fill-opacity="1" fill-rule="nonzero"/></g><g clip-path="url(#8ba5f226fc)"><path fill="#1649ff" d="M 106.363281 37.800781 L 105.675781 38.132812 C 104.683594 38.605469 103.515625 39.160156 102.371094 39.648438 C 100.175781 40.519531 97.921875 41.214844 95.617188 41.730469 C 90.902344 42.601562 86.164062 42.769531 81.402344 42.234375 C 79.671875 41.96875 77.96875 41.59375 76.289062 41.105469 L 76.289062 44.945312 C 82.0625 46.382812 87.886719 46.625 93.757812 45.664062 C 98.996094 44.917969 103.945312 43.296875 108.605469 40.800781 C 108.984375 40.601562 109.363281 40.414062 109.730469 40.234375 C 110.300781 39.96875 110.972656 39.65625 111.636719 39.367188 C 112.414062 39.046875 113.203125 38.75 114.007812 38.480469 L 114.007812 34.742188 C 113.785156 34.808594 113.554688 34.878906 113.308594 34.957031 C 110.859375 35.636719 108.574219 36.738281 106.363281 37.800781 Z M 106.363281 37.800781 " fill-opacity="1" fill-rule="nonzero"/></g><g clip-path="url(#91f8bb08ef)"><path fill="#1649ff" d="M 113.777344 26.113281 C 110.382812 27.421875 106.945312 28.925781 103.558594 30.574219 C 99.691406 32.457031 95.378906 33.558594 90.386719 33.9375 L 90.089844 33.960938 C 89.902344 33.972656 89.71875 33.988281 89.492188 34 C 85.90625 34.148438 82.347656 33.90625 78.816406 33.277344 C 77.960938 33.128906 77.117188 32.9375 76.289062 32.707031 L 76.289062 36.386719 C 79.738281 37.203125 83.238281 37.609375 86.785156 37.605469 C 87.558594 37.605469 88.339844 37.585938 89.121094 37.546875 C 90.335938 37.488281 91.5625 37.386719 92.753906 37.238281 C 93.449219 37.167969 94.085938 37.097656 94.707031 37.015625 C 98.9375 36.46875 103.234375 35.019531 108.222656 32.460938 C 109.984375 31.558594 111.800781 30.78125 113.671875 30.136719 C 113.785156 30.105469 113.898438 30.082031 114.007812 30.058594 L 114.007812 26.023438 Z M 113.777344 26.113281 " fill-opacity="1" fill-rule="nonzero"/></g><g clip-path="url(#1bf86e4ebb)"><path fill="#1649ff" d="M 111.097656 44.246094 C 109.484375 44.882812 107.820312 45.542969 106.222656 46.34375 C 103.554688 47.683594 101.136719 48.847656 98.519531 49.535156 C 95.832031 50.25 93.105469 50.734375 90.335938 50.992188 C 89.859375 51.023438 89.382812 51.054688 88.902344 51.070312 C 84.625 51.234375 80.417969 50.757812 76.289062 49.644531 L 76.289062 53.515625 C 77.804688 53.875 79.339844 54.132812 80.890625 54.277344 C 83.097656 54.492188 85.304688 54.589844 87.519531 54.578125 C 95.230469 54.546875 102.074219 52.863281 108.445312 49.433594 C 110.023438 48.585938 111.65625 47.859375 113.34375 47.253906 C 113.582031 47.195312 113.796875 47.144531 114.007812 47.101562 L 114.007812 43.0625 L 113.753906 43.171875 C 112.875 43.542969 111.972656 43.902344 111.097656 44.246094 Z M 111.097656 44.246094 " fill-opacity="1" fill-rule="nonzero"/></g><g clip-path="url(#7c3fa4c9bf)"><path fill="#1649ff" d="M 7.550781 42.277344 L 7.5 42.269531 L 7.5 46.238281 L 7.570312 46.230469 C 7.679688 46.21875 7.792969 46.199219 7.902344 46.183594 L 8.023438 46.167969 C 9.242188 46.140625 10.492188 46.066406 11.734375 45.941406 C 14.542969 45.699219 17.296875 45.1875 20.007812 44.414062 L 20.007812 40.535156 C 17.75 41.296875 15.445312 41.863281 13.09375 42.238281 C 11.246094 42.441406 9.398438 42.453125 7.550781 42.277344 Z M 7.550781 42.277344 " fill-opacity="1" fill-rule="nonzero"/></g><g clip-path="url(#958e719275)"><path fill="#1649ff" d="M 12.96875 33.726562 C 11.152344 33.941406 9.332031 34.011719 7.503906 33.945312 L 7.5 33.945312 L 7.5 37.570312 C 8.222656 37.5625 8.949219 37.542969 9.6875 37.507812 C 11.636719 37.453125 13.574219 37.265625 15.5 36.9375 C 17.015625 36.695312 18.511719 36.351562 19.984375 35.902344 L 20.007812 35.894531 L 20.007812 32.121094 C 17.710938 32.875 15.367188 33.410156 12.96875 33.726562 Z M 12.96875 33.726562 " fill-opacity="1" fill-rule="nonzero"/></g><g clip-path="url(#d9079d9455)"><path fill="#1649ff" d="M 7.507812 50.996094 L 7.5 50.996094 L 7.5 54.613281 C 8.617188 54.609375 9.714844 54.570312 10.789062 54.496094 C 13.921875 54.320312 16.992188 53.800781 20.007812 52.9375 L 20.007812 49.125 C 17.289062 50.015625 14.511719 50.609375 11.667969 50.910156 C 10.285156 51.023438 8.894531 51.050781 7.507812 50.996094 Z M 7.507812 50.996094 " fill-opacity="1" fill-rule="nonzero"/></g><g fill="#1649ff" fill-opacity="1"><g transform="translate(163.063368, 57.965837)"><g><path d="M 31.859375 -11.59375 C 30.703125 -7.789062 28.8125 -4.773438 26.1875 -2.546875 C 23.570312 -0.328125 20.273438 0.78125 16.296875 0.78125 C 13.203125 0.78125 10.582031 0.144531 8.4375 -1.125 C 6.289062 -2.40625 4.535156 -4.097656 3.171875 -6.203125 C 1.804688 -8.304688 0.820312 -10.734375 0.21875 -13.484375 C -0.375 -16.242188 -0.671875 -19.101562 -0.671875 -22.0625 C -0.671875 -25.019531 -0.375 -27.875 0.21875 -30.625 C 0.820312 -33.382812 1.804688 -35.828125 3.171875 -37.953125 C 4.535156 -40.078125 6.289062 -41.773438 8.4375 -43.046875 C 10.582031 -44.328125 13.203125 -44.96875 16.296875 -44.96875 C 19.035156 -44.96875 21.375 -44.484375 23.3125 -43.515625 C 25.257812 -42.546875 26.695312 -41.066406 27.625 -39.078125 L 27.625 -44.21875 L 31.578125 -44.21875 L 31.578125 -29.71875 L 27.625 -29.71875 C 27.625 -31.28125 27.320312 -32.753906 26.71875 -34.140625 C 26.125 -35.535156 25.316406 -36.738281 24.296875 -37.75 C 23.285156 -38.769531 22.082031 -39.566406 20.6875 -40.140625 C 19.300781 -40.710938 17.835938 -41 16.296875 -41 C 13.898438 -41 11.914062 -40.4375 10.34375 -39.3125 C 8.78125 -38.1875 7.523438 -36.707031 6.578125 -34.875 C 5.628906 -33.039062 4.957031 -31.003906 4.5625 -28.765625 C 4.164062 -26.535156 3.96875 -24.300781 3.96875 -22.0625 C 3.96875 -19.84375 4.164062 -17.609375 4.5625 -15.359375 C 4.957031 -13.117188 5.628906 -11.097656 6.578125 -9.296875 C 7.523438 -7.503906 8.78125 -6.035156 10.34375 -4.890625 C 11.914062 -3.753906 13.898438 -3.1875 16.296875 -3.1875 C 21.804688 -3.1875 25.648438 -6.519531 27.828125 -13.1875 Z M 31.859375 -11.59375 "/></g></g><g transform="translate(200.951587, 57.965837)"><g><path d="M 33.71875 -44.21875 L 25.75 0 L 20.265625 0 L 15.765625 -21.59375 L 11.1875 0 L 5.765625 0 L -2.140625 -44.21875 L 2.78125 -44.21875 L 9.015625 -7.828125 L 13.453125 -31.578125 L 18.03125 -31.578125 L 22.5 -7.828125 L 28.734375 -44.21875 Z M 33.71875 -44.21875 "/></g></g><g transform="translate(238.839807, 57.965837)"><g><path d="M 30.46875 -11.515625 C 30.46875 -9.671875 30.082031 -7.992188 29.3125 -6.484375 C 28.539062 -4.984375 27.507812 -3.691406 26.21875 -2.609375 C 24.9375 -1.523438 23.457031 -0.6875 21.78125 -0.09375 C 20.113281 0.488281 18.378906 0.78125 16.578125 0.78125 C 14.085938 0.78125 11.800781 0.316406 9.71875 -0.609375 C 7.644531 -1.535156 6 -2.898438 4.78125 -4.703125 L 4.78125 0 L 0.84375 0 L 0.84375 -13.453125 L 4.78125 -13.453125 C 4.78125 -11.941406 5.128906 -10.554688 5.828125 -9.296875 C 6.523438 -8.046875 7.414062 -6.96875 8.5 -6.0625 C 9.59375 -5.15625 10.84375 -4.445312 12.25 -3.9375 C 13.664062 -3.4375 15.109375 -3.1875 16.578125 -3.1875 C 17.878906 -3.1875 19.082031 -3.367188 20.1875 -3.734375 C 21.300781 -4.109375 22.273438 -4.640625 23.109375 -5.328125 C 23.941406 -6.023438 24.601562 -6.867188 25.09375 -7.859375 C 25.582031 -8.859375 25.828125 -9.988281 25.828125 -11.25 C 25.828125 -12.675781 25.515625 -13.894531 24.890625 -14.90625 C 24.265625 -15.925781 23.425781 -16.796875 22.375 -17.515625 C 21.332031 -18.242188 20.15625 -18.859375 18.84375 -19.359375 C 17.53125 -19.867188 16.195312 -20.375 14.84375 -20.875 C 13.238281 -21.4375 11.632812 -22.03125 10.03125 -22.65625 C 8.425781 -23.28125 6.988281 -24.066406 5.71875 -25.015625 C 4.457031 -25.960938 3.429688 -27.117188 2.640625 -28.484375 C 1.847656 -29.847656 1.453125 -31.546875 1.453125 -33.578125 C 1.453125 -35.390625 1.835938 -37 2.609375 -38.40625 C 3.378906 -39.820312 4.382812 -41.015625 5.625 -41.984375 C 6.863281 -42.960938 8.304688 -43.703125 9.953125 -44.203125 C 11.609375 -44.710938 13.304688 -44.96875 15.046875 -44.96875 C 17.191406 -44.96875 19.171875 -44.523438 20.984375 -43.640625 C 22.804688 -42.765625 24.226562 -41.421875 25.25 -39.609375 L 25.25 -44.21875 L 29.34375 -44.21875 L 29.34375 -31.578125 L 25.25 -31.578125 C 25.25 -32.910156 24.972656 -34.160156 24.421875 -35.328125 C 23.867188 -36.492188 23.113281 -37.488281 22.15625 -38.3125 C 21.207031 -39.132812 20.125 -39.785156 18.90625 -40.265625 C 17.6875 -40.753906 16.398438 -41 15.046875 -41 C 13.847656 -41 12.707031 -40.863281 11.625 -40.59375 C 10.539062 -40.320312 9.59375 -39.882812 8.78125 -39.28125 C 7.96875 -38.6875 7.316406 -37.914062 6.828125 -36.96875 C 6.335938 -36.019531 6.09375 -34.890625 6.09375 -33.578125 C 6.09375 -32.429688 6.378906 -31.453125 6.953125 -30.640625 C 7.535156 -29.828125 8.3125 -29.109375 9.28125 -28.484375 C 10.257812 -27.859375 11.382812 -27.289062 12.65625 -26.78125 C 13.9375 -26.28125 15.242188 -25.769531 16.578125 -25.25 C 18.242188 -24.65625 19.898438 -24 21.546875 -23.28125 C 23.203125 -22.5625 24.679688 -21.691406 25.984375 -20.671875 C 27.296875 -19.648438 28.367188 -18.398438 29.203125 -16.921875 C 30.046875 -15.441406 30.46875 -13.640625 30.46875 -11.515625 Z M 30.46875 -11.515625 "/></g></g><g transform="translate(276.728027, 57.965837)"><g><path d="M 29.921875 0 L 25.25 0 L 25.25 -36.84375 L 17.421875 -14.03125 L 14.09375 -14.03125 L 6.296875 -36.84375 L 6.296875 0 L 1.65625 0 L 1.65625 -44.21875 L 7.6875 -44.21875 L 15.765625 -21.109375 L 23.890625 -44.21875 L 29.921875 -44.21875 Z M 29.921875 0 "/></g></g></g><path stroke-linecap="butt" transform="matrix(0.00641419, 0.745585, -0.749972, 0.00645193, 327.231088, 9.418254)" fill="none" stroke-linejoin="miter" d="M 0.000523091 0.500849 L 77.461752 0.501858 " stroke="#5ce1e6" stroke-width="1" stroke-opacity="1" stroke-miterlimit="4"/><g fill="#1649ff" fill-opacity="1"><g transform="translate(346.235787, 22.715324)"><g><path d="M 6.90625 0 L 1.375 0 L 1.375 -1.640625 L 3.203125 -1.640625 L 3.203125 -9.875 L 1.375 -9.875 L 1.375 -11.53125 L 6.90625 -11.53125 L 6.90625 -9.875 L 5.03125 -9.875 L 5.03125 -1.640625 L 6.90625 -1.640625 Z M 6.90625 0 "/></g></g></g><g fill="#1649ff" fill-opacity="1"><g transform="translate(356.113136, 22.715324)"><g><path d="M 7.796875 0 L 5.96875 0 L 5.96875 -5.078125 C 5.96875 -5.722656 5.847656 -6.164062 5.609375 -6.40625 C 5.367188 -6.65625 5.019531 -6.78125 4.5625 -6.78125 C 3.882812 -6.78125 3.332031 -6.503906 2.90625 -5.953125 C 2.476562 -5.410156 2.265625 -4.65625 2.265625 -3.6875 L 2.265625 0 L 0.4375 0 L 0.4375 -8.234375 L 2.265625 -8.234375 L 2.265625 -6.171875 C 2.441406 -6.878906 2.773438 -7.429688 3.265625 -7.828125 C 3.765625 -8.222656 4.378906 -8.421875 5.109375 -8.421875 C 5.953125 -8.421875 6.609375 -8.144531 7.078125 -7.59375 C 7.554688 -7.050781 7.796875 -6.210938 7.796875 -5.078125 Z M 7.796875 0 "/></g></g></g><g fill="#1649ff" fill-opacity="1"><g transform="translate(365.990485, 22.715324)"><g><path d="M 8.328125 -2.625 C 8.234375 -1.757812 7.890625 -1.070312 7.296875 -0.5625 C 6.710938 -0.0507812 5.984375 0.203125 5.109375 0.203125 C 4.617188 0.203125 4.175781 0.125 3.78125 -0.03125 C 3.382812 -0.195312 3.039062 -0.421875 2.75 -0.703125 C 2.46875 -0.984375 2.25 -1.320312 2.09375 -1.71875 C 1.9375 -2.113281 1.859375 -2.546875 1.859375 -3.015625 L 1.859375 -6.578125 L 0 -6.578125 L 0 -8.234375 L 1.859375 -8.234375 L 1.859375 -11.53125 L 3.6875 -11.53125 L 3.6875 -8.234375 L 7.140625 -8.234375 L 7.140625 -6.578125 L 3.6875 -6.578125 L 3.6875 -3.015625 C 3.6875 -2.484375 3.816406 -2.085938 4.078125 -1.828125 C 4.335938 -1.578125 4.679688 -1.453125 5.109375 -1.453125 C 5.628906 -1.453125 6.015625 -1.597656 6.265625 -1.890625 C 6.515625 -2.191406 6.664062 -2.554688 6.71875 -2.984375 Z M 8.328125 -2.625 "/></g></g></g><g fill="#1649ff" fill-opacity="1"><g transform="translate(375.867833, 22.715324)"><g><path d="M 1.671875 -3.421875 C 1.765625 -2.859375 2.035156 -2.390625 2.484375 -2.015625 C 2.929688 -1.640625 3.535156 -1.453125 4.296875 -1.453125 C 4.890625 -1.453125 5.40625 -1.539062 5.84375 -1.71875 C 6.289062 -1.90625 6.671875 -2.15625 6.984375 -2.46875 L 7.921875 -1.171875 C 7.390625 -0.640625 6.828125 -0.273438 6.234375 -0.078125 C 5.648438 0.109375 5.003906 0.203125 4.296875 0.203125 C 3.660156 0.203125 3.066406 0.0976562 2.515625 -0.109375 C 1.972656 -0.328125 1.5 -0.625 1.09375 -1 C 0.695312 -1.382812 0.382812 -1.835938 0.15625 -2.359375 C -0.0625 -2.878906 -0.171875 -3.460938 -0.171875 -4.109375 C -0.171875 -4.734375 -0.0664062 -5.304688 0.140625 -5.828125 C 0.347656 -6.359375 0.640625 -6.816406 1.015625 -7.203125 C 1.398438 -7.585938 1.859375 -7.882812 2.390625 -8.09375 C 2.921875 -8.3125 3.503906 -8.421875 4.140625 -8.421875 C 4.804688 -8.421875 5.410156 -8.304688 5.953125 -8.078125 C 6.492188 -7.859375 6.957031 -7.53125 7.34375 -7.09375 C 7.726562 -6.664062 8.03125 -6.140625 8.25 -5.515625 C 8.46875 -4.898438 8.578125 -4.203125 8.578125 -3.421875 Z M 6.515625 -5.03125 C 6.421875 -5.5625 6.144531 -5.984375 5.6875 -6.296875 C 5.238281 -6.617188 4.722656 -6.78125 4.140625 -6.78125 C 3.566406 -6.78125 3.050781 -6.617188 2.59375 -6.296875 C 2.132812 -5.984375 1.859375 -5.5625 1.765625 -5.03125 Z M 6.515625 -5.03125 "/></g></g></g><g fill="#1649ff" fill-opacity="1"><g transform="translate(385.745182, 22.715324)"><g><path d="M 8.03125 -6.28125 C 7.8125 -6.382812 7.585938 -6.460938 7.359375 -6.515625 C 7.140625 -6.578125 6.878906 -6.609375 6.578125 -6.609375 C 6.171875 -6.609375 5.789062 -6.546875 5.4375 -6.421875 C 5.082031 -6.304688 4.773438 -6.125 4.515625 -5.875 C 4.253906 -5.632812 4.050781 -5.332031 3.90625 -4.96875 C 3.757812 -4.613281 3.6875 -4.1875 3.6875 -3.6875 L 3.6875 -1.640625 L 5.546875 -1.640625 L 5.546875 0 L 0 0 L 0 -1.640625 L 1.859375 -1.640625 L 1.859375 -6.578125 L 0 -6.578125 L 0 -8.234375 L 3.6875 -8.234375 L 3.6875 -6.171875 C 3.988281 -6.992188 4.429688 -7.570312 5.015625 -7.90625 C 5.609375 -8.25 6.304688 -8.421875 7.109375 -8.421875 C 7.359375 -8.421875 7.625 -8.394531 7.90625 -8.34375 C 8.1875 -8.289062 8.457031 -8.195312 8.71875 -8.0625 Z M 8.03125 -6.28125 "/></g></g></g><g fill="#1649ff" fill-opacity="1"><g transform="translate(395.622531, 22.715324)"><g><path d="M 7.796875 0 L 5.96875 0 L 5.96875 -5.078125 C 5.96875 -5.722656 5.847656 -6.164062 5.609375 -6.40625 C 5.367188 -6.65625 5.019531 -6.78125 4.5625 -6.78125 C 3.882812 -6.78125 3.332031 -6.503906 2.90625 -5.953125 C 2.476562 -5.410156 2.265625 -4.65625 2.265625 -3.6875 L 2.265625 0 L 0.4375 0 L 0.4375 -8.234375 L 2.265625 -8.234375 L 2.265625 -6.171875 C 2.441406 -6.878906 2.773438 -7.429688 3.265625 -7.828125 C 3.765625 -8.222656 4.378906 -8.421875 5.109375 -8.421875 C 5.953125 -8.421875 6.609375 -8.144531 7.078125 -7.59375 C 7.554688 -7.050781 7.796875 -6.210938 7.796875 -5.078125 Z M 7.796875 0 "/></g></g></g><g fill="#1649ff" fill-opacity="1"><g transform="translate(405.499879, 22.715324)"><g><path d="M -0.03125 -2.375 C -0.03125 -2.851562 0.09375 -3.269531 0.34375 -3.625 C 0.601562 -3.988281 0.941406 -4.289062 1.359375 -4.53125 C 1.785156 -4.78125 2.269531 -4.960938 2.8125 -5.078125 C 3.363281 -5.203125 3.921875 -5.265625 4.484375 -5.265625 C 4.796875 -5.265625 5.0625 -5.257812 5.28125 -5.25 C 5.507812 -5.238281 5.738281 -5.21875 5.96875 -5.1875 L 5.96875 -5.515625 C 5.96875 -5.953125 5.800781 -6.273438 5.46875 -6.484375 C 5.132812 -6.691406 4.695312 -6.796875 4.15625 -6.796875 C 3.664062 -6.796875 3.160156 -6.726562 2.640625 -6.59375 C 2.128906 -6.457031 1.644531 -6.253906 1.1875 -5.984375 L 0.453125 -7.421875 C 0.992188 -7.734375 1.570312 -7.976562 2.1875 -8.15625 C 2.8125 -8.332031 3.46875 -8.421875 4.15625 -8.421875 C 4.601562 -8.421875 5.039062 -8.367188 5.46875 -8.265625 C 5.90625 -8.171875 6.296875 -8.007812 6.640625 -7.78125 C 6.992188 -7.550781 7.269531 -7.25 7.46875 -6.875 C 7.675781 -6.507812 7.78125 -6.054688 7.78125 -5.515625 L 7.78125 0 L 5.96875 0 L 5.96875 -1.203125 C 5.6875 -0.753906 5.265625 -0.40625 4.703125 -0.15625 C 4.140625 0.0820312 3.53125 0.203125 2.875 0.203125 C 2.476562 0.203125 2.097656 0.144531 1.734375 0.03125 C 1.378906 -0.0703125 1.070312 -0.234375 0.8125 -0.453125 C 0.5625 -0.671875 0.359375 -0.9375 0.203125 -1.25 C 0.046875 -1.570312 -0.03125 -1.945312 -0.03125 -2.375 Z M 3.34375 -1.4375 C 3.707031 -1.4375 4.046875 -1.476562 4.359375 -1.5625 C 4.671875 -1.65625 4.945312 -1.78125 5.1875 -1.9375 C 5.4375 -2.101562 5.628906 -2.300781 5.765625 -2.53125 C 5.898438 -2.757812 5.96875 -3.015625 5.96875 -3.296875 L 5.96875 -3.609375 C 5.6875 -3.648438 5.414062 -3.671875 5.15625 -3.671875 C 4.90625 -3.679688 4.679688 -3.6875 4.484375 -3.6875 C 3.585938 -3.6875 2.910156 -3.566406 2.453125 -3.328125 C 2.003906 -3.097656 1.78125 -2.8125 1.78125 -2.46875 C 1.78125 -1.78125 2.300781 -1.4375 3.34375 -1.4375 Z M 3.34375 -1.4375 "/></g></g></g><g fill="#1649ff" fill-opacity="1"><g transform="translate(415.377228, 22.715324)"><g><path d="M 8.328125 -2.625 C 8.234375 -1.757812 7.890625 -1.070312 7.296875 -0.5625 C 6.710938 -0.0507812 5.984375 0.203125 5.109375 0.203125 C 4.617188 0.203125 4.175781 0.125 3.78125 -0.03125 C 3.382812 -0.195312 3.039062 -0.421875 2.75 -0.703125 C 2.46875 -0.984375 2.25 -1.320312 2.09375 -1.71875 C 1.9375 -2.113281 1.859375 -2.546875 1.859375 -3.015625 L 1.859375 -6.578125 L 0 -6.578125 L 0 -8.234375 L 1.859375 -8.234375 L 1.859375 -11.53125 L 3.6875 -11.53125 L 3.6875 -8.234375 L 7.140625 -8.234375 L 7.140625 -6.578125 L 3.6875 -6.578125 L 3.6875 -3.015625 C 3.6875 -2.484375 3.816406 -2.085938 4.078125 -1.828125 C 4.335938 -1.578125 4.679688 -1.453125 5.109375 -1.453125 C 5.628906 -1.453125 6.015625 -1.597656 6.265625 -1.890625 C 6.515625 -2.191406 6.664062 -2.554688 6.71875 -2.984375 Z M 8.328125 -2.625 "/></g></g></g><g fill="#1649ff" fill-opacity="1"><g transform="translate(425.254577, 22.715324)"><g><path d="M 5.234375 -9.296875 L 3 -9.296875 L 3 -11.53125 L 5.234375 -11.53125 Z M 6.90625 0 L 1.375 0 L 1.375 -1.640625 L 3.203125 -1.640625 L 3.203125 -6.578125 L 1.375 -6.578125 L 1.375 -8.234375 L 5.03125 -8.234375 L 5.03125 -1.640625 L 6.90625 -1.640625 Z M 6.90625 0 "/></g></g></g><g fill="#1649ff" fill-opacity="1"><g transform="translate(435.131926, 22.715324)"><g><path d="M 8.453125 -4.109375 C 8.453125 -3.460938 8.347656 -2.878906 8.140625 -2.359375 C 7.941406 -1.835938 7.648438 -1.382812 7.265625 -1 C 6.890625 -0.625 6.4375 -0.328125 5.90625 -0.109375 C 5.375 0.0976562 4.78125 0.203125 4.125 0.203125 C 3.476562 0.203125 2.890625 0.0976562 2.359375 -0.109375 C 1.835938 -0.328125 1.382812 -0.625 1 -1 C 0.625 -1.382812 0.332031 -1.835938 0.125 -2.359375 C -0.0703125 -2.878906 -0.171875 -3.460938 -0.171875 -4.109375 C -0.171875 -4.734375 -0.0703125 -5.3125 0.125 -5.84375 C 0.332031 -6.375 0.625 -6.832031 1 -7.21875 C 1.382812 -7.601562 1.835938 -7.898438 2.359375 -8.109375 C 2.890625 -8.316406 3.476562 -8.421875 4.125 -8.421875 C 4.78125 -8.421875 5.375 -8.316406 5.90625 -8.109375 C 6.4375 -7.898438 6.890625 -7.601562 7.265625 -7.21875 C 7.648438 -6.832031 7.941406 -6.375 8.140625 -5.84375 C 8.347656 -5.3125 8.453125 -4.734375 8.453125 -4.109375 Z M 6.625 -4.109375 C 6.625 -4.484375 6.566406 -4.832031 6.453125 -5.15625 C 6.335938 -5.488281 6.171875 -5.773438 5.953125 -6.015625 C 5.734375 -6.253906 5.46875 -6.441406 5.15625 -6.578125 C 4.851562 -6.710938 4.507812 -6.78125 4.125 -6.78125 C 3.738281 -6.78125 3.390625 -6.710938 3.078125 -6.578125 C 2.773438 -6.441406 2.515625 -6.253906 2.296875 -6.015625 C 2.085938 -5.773438 1.925781 -5.488281 1.8125 -5.15625 C 1.695312 -4.832031 1.640625 -4.484375 1.640625 -4.109375 C 1.640625 -3.722656 1.695312 -3.367188 1.8125 -3.046875 C 1.925781 -2.734375 2.085938 -2.453125 2.296875 -2.203125 C 2.515625 -1.960938 2.773438 -1.773438 3.078125 -1.640625 C 3.390625 -1.515625 3.738281 -1.453125 4.125 -1.453125 C 4.507812 -1.453125 4.851562 -1.515625 5.15625 -1.640625 C 5.46875 -1.773438 5.734375 -1.960938 5.953125 -2.203125 C 6.171875 -2.453125 6.335938 -2.734375 6.453125 -3.046875 C 6.566406 -3.367188 6.625 -3.722656 6.625 -4.109375 Z M 6.625 -4.109375 "/></g></g></g><g fill="#1649ff" fill-opacity="1"><g transform="translate(445.009274, 22.715324)"><g><path d="M 7.796875 0 L 5.96875 0 L 5.96875 -5.078125 C 5.96875 -5.722656 5.847656 -6.164062 5.609375 -6.40625 C 5.367188 -6.65625 5.019531 -6.78125 4.5625 -6.78125 C 3.882812 -6.78125 3.332031 -6.503906 2.90625 -5.953125 C 2.476562 -5.410156 2.265625 -4.65625 2.265625 -3.6875 L 2.265625 0 L 0.4375 0 L 0.4375 -8.234375 L 2.265625 -8.234375 L 2.265625 -6.171875 C 2.441406 -6.878906 2.773438 -7.429688 3.265625 -7.828125 C 3.765625 -8.222656 4.378906 -8.421875 5.109375 -8.421875 C 5.953125 -8.421875 6.609375 -8.144531 7.078125 -7.59375 C 7.554688 -7.050781 7.796875 -6.210938 7.796875 -5.078125 Z M 7.796875 0 "/></g></g></g><g fill="#1649ff" fill-opacity="1"><g transform="translate(454.886623, 22.715324)"><g><path d="M -0.03125 -2.375 C -0.03125 -2.851562 0.09375 -3.269531 0.34375 -3.625 C 0.601562 -3.988281 0.941406 -4.289062 1.359375 -4.53125 C 1.785156 -4.78125 2.269531 -4.960938 2.8125 -5.078125 C 3.363281 -5.203125 3.921875 -5.265625 4.484375 -5.265625 C 4.796875 -5.265625 5.0625 -5.257812 5.28125 -5.25 C 5.507812 -5.238281 5.738281 -5.21875 5.96875 -5.1875 L 5.96875 -5.515625 C 5.96875 -5.953125 5.800781 -6.273438 5.46875 -6.484375 C 5.132812 -6.691406 4.695312 -6.796875 4.15625 -6.796875 C 3.664062 -6.796875 3.160156 -6.726562 2.640625 -6.59375 C 2.128906 -6.457031 1.644531 -6.253906 1.1875 -5.984375 L 0.453125 -7.421875 C 0.992188 -7.734375 1.570312 -7.976562 2.1875 -8.15625 C 2.8125 -8.332031 3.46875 -8.421875 4.15625 -8.421875 C 4.601562 -8.421875 5.039062 -8.367188 5.46875 -8.265625 C 5.90625 -8.171875 6.296875 -8.007812 6.640625 -7.78125 C 6.992188 -7.550781 7.269531 -7.25 7.46875 -6.875 C 7.675781 -6.507812 7.78125 -6.054688 7.78125 -5.515625 L 7.78125 0 L 5.96875 0 L 5.96875 -1.203125 C 5.6875 -0.753906 5.265625 -0.40625 4.703125 -0.15625 C 4.140625 0.0820312 3.53125 0.203125 2.875 0.203125 C 2.476562 0.203125 2.097656 0.144531 1.734375 0.03125 C 1.378906 -0.0703125 1.070312 -0.234375 0.8125 -0.453125 C 0.5625 -0.671875 0.359375 -0.9375 0.203125 -1.25 C 0.046875 -1.570312 -0.03125 -1.945312 -0.03125 -2.375 Z M 3.34375 -1.4375 C 3.707031 -1.4375 4.046875 -1.476562 4.359375 -1.5625 C 4.671875 -1.65625 4.945312 -1.78125 5.1875 -1.9375 C 5.4375 -2.101562 5.628906 -2.300781 5.765625 -2.53125 C 5.898438 -2.757812 5.96875 -3.015625 5.96875 -3.296875 L 5.96875 -3.609375 C 5.6875 -3.648438 5.414062 -3.671875 5.15625 -3.671875 C 4.90625 -3.679688 4.679688 -3.6875 4.484375 -3.6875 C 3.585938 -3.6875 2.910156 -3.566406 2.453125 -3.328125 C 2.003906 -3.097656 1.78125 -2.8125 1.78125 -2.46875 C 1.78125 -1.78125 2.300781 -1.4375 3.34375 -1.4375 Z M 3.34375 -1.4375 "/></g></g></g><g fill="#1649ff" fill-opacity="1"><g transform="translate(464.763972, 22.715324)"><g><path d="M 6.921875 0 L 1.390625 0 L 1.390625 -1.640625 L 3.203125 -1.640625 L 3.203125 -9.875 L 1.390625 -9.875 L 1.390625 -11.53125 L 5.03125 -11.53125 L 5.03125 -1.640625 L 6.921875 -1.640625 Z M 6.921875 0 "/></g></g></g><g fill="#1649ff" fill-opacity="1"><g transform="translate(346.235787, 43.715322)"><g><path d="M 6.859375 0 L 6.03125 -2.75 L 2.203125 -2.75 L 1.390625 0 L -0.515625 0 L 3.078125 -11.53125 L 5.171875 -11.53125 L 8.765625 0 Z M 2.6875 -4.359375 L 5.546875 -4.359375 L 4.125 -9.125 Z M 2.6875 -4.359375 "/></g></g></g><g fill="#1649ff" fill-opacity="1"><g transform="translate(356.113136, 43.715322)"><g><path d="M 6.859375 0 L 6.03125 -2.75 L 2.203125 -2.75 L 1.390625 0 L -0.515625 0 L 3.078125 -11.53125 L 5.171875 -11.53125 L 8.765625 0 Z M 2.6875 -4.359375 L 5.546875 -4.359375 L 4.125 -9.125 Z M 2.6875 -4.359375 "/></g></g></g><g fill="#1649ff" fill-opacity="1"><g transform="translate(365.990485, 43.715322)"><g><path d="M 6.859375 0 L 6.03125 -2.75 L 2.203125 -2.75 L 1.390625 0 L -0.515625 0 L 3.078125 -11.53125 L 5.171875 -11.53125 L 8.765625 0 Z M 2.6875 -4.359375 L 5.546875 -4.359375 L 4.125 -9.125 Z M 2.6875 -4.359375 "/></g></g></g><g fill="#1649ff" fill-opacity="1"><g transform="translate(375.867833, 43.715322)"><g><path d="M 6.90625 0 L 1.375 0 L 1.375 -1.640625 L 3.203125 -1.640625 L 3.203125 -9.875 L 1.375 -9.875 L 1.375 -11.53125 L 6.90625 -11.53125 L 6.90625 -9.875 L 5.03125 -9.875 L 5.03125 -1.640625 L 6.90625 -1.640625 Z M 6.90625 0 "/></g></g></g><g fill="#1649ff" fill-opacity="1"><g transform="translate(385.745182, 43.715322)"><g/></g></g><g fill="#1649ff" fill-opacity="1"><g transform="translate(395.622531, 43.715322)"><g><path d="M 8.40625 -3.53125 C 8.269531 -2.957031 8.082031 -2.441406 7.84375 -1.984375 C 7.601562 -1.523438 7.3125 -1.132812 6.96875 -0.8125 C 6.632812 -0.488281 6.242188 -0.238281 5.796875 -0.0625 C 5.347656 0.113281 4.832031 0.203125 4.25 0.203125 C 3.445312 0.203125 2.765625 0.0351562 2.203125 -0.296875 C 1.640625 -0.628906 1.179688 -1.070312 0.828125 -1.625 C 0.472656 -2.1875 0.21875 -2.820312 0.0625 -3.53125 C -0.09375 -4.25 -0.171875 -4.992188 -0.171875 -5.765625 C -0.171875 -6.535156 -0.09375 -7.28125 0.0625 -8 C 0.21875 -8.71875 0.46875 -9.347656 0.8125 -9.890625 C 1.164062 -10.441406 1.613281 -10.882812 2.15625 -11.21875 C 2.695312 -11.550781 3.359375 -11.71875 4.140625 -11.71875 C 4.398438 -11.71875 4.65625 -11.6875 4.90625 -11.625 C 5.164062 -11.5625 5.40625 -11.460938 5.625 -11.328125 C 5.851562 -11.191406 6.050781 -11.023438 6.21875 -10.828125 C 6.382812 -10.640625 6.503906 -10.421875 6.578125 -10.171875 L 6.578125 -11.53125 L 8.234375 -11.53125 L 8.234375 -7.171875 L 6.578125 -7.171875 C 6.578125 -7.523438 6.53125 -7.875 6.4375 -8.21875 C 6.351562 -8.570312 6.210938 -8.882812 6.015625 -9.15625 C 5.828125 -9.425781 5.582031 -9.644531 5.28125 -9.8125 C 4.988281 -9.988281 4.644531 -10.078125 4.25 -10.078125 C 3.726562 -10.078125 3.300781 -9.953125 2.96875 -9.703125 C 2.644531 -9.453125 2.378906 -9.117188 2.171875 -8.703125 C 1.972656 -8.285156 1.832031 -7.820312 1.75 -7.3125 C 1.675781 -6.800781 1.640625 -6.285156 1.640625 -5.765625 C 1.640625 -5.242188 1.675781 -4.722656 1.75 -4.203125 C 1.832031 -3.691406 1.972656 -3.226562 2.171875 -2.8125 C 2.367188 -2.40625 2.632812 -2.078125 2.96875 -1.828125 C 3.300781 -1.578125 3.726562 -1.453125 4.25 -1.453125 C 5 -1.453125 5.570312 -1.6875 5.96875 -2.15625 C 6.375 -2.632812 6.695312 -3.28125 6.9375 -4.09375 Z M 8.40625 -3.53125 "/></g></g></g><g fill="#1649ff" fill-opacity="1"><g transform="translate(405.499879, 43.715322)"><g><path d="M 8.453125 -4.109375 C 8.453125 -3.460938 8.347656 -2.878906 8.140625 -2.359375 C 7.941406 -1.835938 7.648438 -1.382812 7.265625 -1 C 6.890625 -0.625 6.4375 -0.328125 5.90625 -0.109375 C 5.375 0.0976562 4.78125 0.203125 4.125 0.203125 C 3.476562 0.203125 2.890625 0.0976562 2.359375 -0.109375 C 1.835938 -0.328125 1.382812 -0.625 1 -1 C 0.625 -1.382812 0.332031 -1.835938 0.125 -2.359375 C -0.0703125 -2.878906 -0.171875 -3.460938 -0.171875 -4.109375 C -0.171875 -4.734375 -0.0703125 -5.3125 0.125 -5.84375 C 0.332031 -6.375 0.625 -6.832031 1 -7.21875 C 1.382812 -7.601562 1.835938 -7.898438 2.359375 -8.109375 C 2.890625 -8.316406 3.476562 -8.421875 4.125 -8.421875 C 4.78125 -8.421875 5.375 -8.316406 5.90625 -8.109375 C 6.4375 -7.898438 6.890625 -7.601562 7.265625 -7.21875 C 7.648438 -6.832031 7.941406 -6.375 8.140625 -5.84375 C 8.347656 -5.3125 8.453125 -4.734375 8.453125 -4.109375 Z M 6.625 -4.109375 C 6.625 -4.484375 6.566406 -4.832031 6.453125 -5.15625 C 6.335938 -5.488281 6.171875 -5.773438 5.953125 -6.015625 C 5.734375 -6.253906 5.46875 -6.441406 5.15625 -6.578125 C 4.851562 -6.710938 4.507812 -6.78125 4.125 -6.78125 C 3.738281 -6.78125 3.390625 -6.710938 3.078125 -6.578125 C 2.773438 -6.441406 2.515625 -6.253906 2.296875 -6.015625 C 2.085938 -5.773438 1.925781 -5.488281 1.8125 -5.15625 C 1.695312 -4.832031 1.640625 -4.484375 1.640625 -4.109375 C 1.640625 -3.722656 1.695312 -3.367188 1.8125 -3.046875 C 1.925781 -2.734375 2.085938 -2.453125 2.296875 -2.203125 C 2.515625 -1.960938 2.773438 -1.773438 3.078125 -1.640625 C 3.390625 -1.515625 3.738281 -1.453125 4.125 -1.453125 C 4.507812 -1.453125 4.851562 -1.515625 5.15625 -1.640625 C 5.46875 -1.773438 5.734375 -1.960938 5.953125 -2.203125 C 6.171875 -2.453125 6.335938 -2.734375 6.453125 -3.046875 C 6.566406 -3.367188 6.625 -3.722656 6.625 -4.109375 Z M 6.625 -4.109375 "/></g></g></g><g fill="#1649ff" fill-opacity="1"><g transform="translate(415.377228, 43.715322)"><g><path d="M 7.796875 0 L 5.96875 0 L 5.96875 -5.078125 C 5.96875 -5.722656 5.847656 -6.164062 5.609375 -6.40625 C 5.367188 -6.65625 5.019531 -6.78125 4.5625 -6.78125 C 3.882812 -6.78125 3.332031 -6.503906 2.90625 -5.953125 C 2.476562 -5.410156 2.265625 -4.65625 2.265625 -3.6875 L 2.265625 0 L 0.4375 0 L 0.4375 -8.234375 L 2.265625 -8.234375 L 2.265625 -6.171875 C 2.441406 -6.878906 2.773438 -7.429688 3.265625 -7.828125 C 3.765625 -8.222656 4.378906 -8.421875 5.109375 -8.421875 C 5.953125 -8.421875 6.609375 -8.144531 7.078125 -7.59375 C 7.554688 -7.050781 7.796875 -6.210938 7.796875 -5.078125 Z M 7.796875 0 "/></g></g></g><g fill="#1649ff" fill-opacity="1"><g transform="translate(425.254577, 43.715322)"><g><path d="M 8.234375 -6.578125 L 5.03125 -6.578125 L 5.03125 -1.640625 L 6.90625 -1.640625 L 6.90625 0 L 1.375 0 L 1.375 -1.640625 L 3.203125 -1.640625 L 3.203125 -6.578125 L 1.375 -6.578125 L 1.375 -8.234375 L 3.203125 -8.234375 C 3.203125 -9.367188 3.546875 -10.234375 4.234375 -10.828125 C 4.929688 -11.421875 5.875 -11.71875 7.0625 -11.71875 C 7.238281 -11.71875 7.425781 -11.707031 7.625 -11.6875 C 7.820312 -11.675781 8.023438 -11.660156 8.234375 -11.640625 L 8.234375 -10.03125 C 7.878906 -10.0625 7.554688 -10.078125 7.265625 -10.078125 C 6.796875 -10.078125 6.414062 -10.039062 6.125 -9.96875 C 5.84375 -9.90625 5.617188 -9.796875 5.453125 -9.640625 C 5.296875 -9.492188 5.1875 -9.300781 5.125 -9.0625 C 5.0625 -8.832031 5.03125 -8.554688 5.03125 -8.234375 L 8.234375 -8.234375 Z M 8.234375 -6.578125 "/></g></g></g><g fill="#1649ff" fill-opacity="1"><g transform="translate(435.131926, 43.715322)"><g><path d="M 1.671875 -3.421875 C 1.765625 -2.859375 2.035156 -2.390625 2.484375 -2.015625 C 2.929688 -1.640625 3.535156 -1.453125 4.296875 -1.453125 C 4.890625 -1.453125 5.40625 -1.539062 5.84375 -1.71875 C 6.289062 -1.90625 6.671875 -2.15625 6.984375 -2.46875 L 7.921875 -1.171875 C 7.390625 -0.640625 6.828125 -0.273438 6.234375 -0.078125 C 5.648438 0.109375 5.003906 0.203125 4.296875 0.203125 C 3.660156 0.203125 3.066406 0.0976562 2.515625 -0.109375 C 1.972656 -0.328125 1.5 -0.625 1.09375 -1 C 0.695312 -1.382812 0.382812 -1.835938 0.15625 -2.359375 C -0.0625 -2.878906 -0.171875 -3.460938 -0.171875 -4.109375 C -0.171875 -4.734375 -0.0664062 -5.304688 0.140625 -5.828125 C 0.347656 -6.359375 0.640625 -6.816406 1.015625 -7.203125 C 1.398438 -7.585938 1.859375 -7.882812 2.390625 -8.09375 C 2.921875 -8.3125 3.503906 -8.421875 4.140625 -8.421875 C 4.804688 -8.421875 5.410156 -8.304688 5.953125 -8.078125 C 6.492188 -7.859375 6.957031 -7.53125 7.34375 -7.09375 C 7.726562 -6.664062 8.03125 -6.140625 8.25 -5.515625 C 8.46875 -4.898438 8.578125 -4.203125 8.578125 -3.421875 Z M 6.515625 -5.03125 C 6.421875 -5.5625 6.144531 -5.984375 5.6875 -6.296875 C 5.238281 -6.617188 4.722656 -6.78125 4.140625 -6.78125 C 3.566406 -6.78125 3.050781 -6.617188 2.59375 -6.296875 C 2.132812 -5.984375 1.859375 -5.5625 1.765625 -5.03125 Z M 6.515625 -5.03125 "/></g></g></g><g fill="#1649ff" fill-opacity="1"><g transform="translate(445.009274, 43.715322)"><g><path d="M 8.03125 -6.28125 C 7.8125 -6.382812 7.585938 -6.460938 7.359375 -6.515625 C 7.140625 -6.578125 6.878906 -6.609375 6.578125 -6.609375 C 6.171875 -6.609375 5.789062 -6.546875 5.4375 -6.421875 C 5.082031 -6.304688 4.773438 -6.125 4.515625 -5.875 C 4.253906 -5.632812 4.050781 -5.332031 3.90625 -4.96875 C 3.757812 -4.613281 3.6875 -4.1875 3.6875 -3.6875 L 3.6875 -1.640625 L 5.546875 -1.640625 L 5.546875 0 L 0 0 L 0 -1.640625 L 1.859375 -1.640625 L 1.859375 -6.578125 L 0 -6.578125 L 0 -8.234375 L 3.6875 -8.234375 L 3.6875 -6.171875 C 3.988281 -6.992188 4.429688 -7.570312 5.015625 -7.90625 C 5.609375 -8.25 6.304688 -8.421875 7.109375 -8.421875 C 7.359375 -8.421875 7.625 -8.394531 7.90625 -8.34375 C 8.1875 -8.289062 8.457031 -8.195312 8.71875 -8.0625 Z M 8.03125 -6.28125 "/></g></g></g><g fill="#1649ff" fill-opacity="1"><g transform="translate(454.886623, 43.715322)"><g><path d="M 1.671875 -3.421875 C 1.765625 -2.859375 2.035156 -2.390625 2.484375 -2.015625 C 2.929688 -1.640625 3.535156 -1.453125 4.296875 -1.453125 C 4.890625 -1.453125 5.40625 -1.539062 5.84375 -1.71875 C 6.289062 -1.90625 6.671875 -2.15625 6.984375 -2.46875 L 7.921875 -1.171875 C 7.390625 -0.640625 6.828125 -0.273438 6.234375 -0.078125 C 5.648438 0.109375 5.003906 0.203125 4.296875 0.203125 C 3.660156 0.203125 3.066406 0.0976562 2.515625 -0.109375 C 1.972656 -0.328125 1.5 -0.625 1.09375 -1 C 0.695312 -1.382812 0.382812 -1.835938 0.15625 -2.359375 C -0.0625 -2.878906 -0.171875 -3.460938 -0.171875 -4.109375 C -0.171875 -4.734375 -0.0664062 -5.304688 0.140625 -5.828125 C 0.347656 -6.359375 0.640625 -6.816406 1.015625 -7.203125 C 1.398438 -7.585938 1.859375 -7.882812 2.390625 -8.09375 C 2.921875 -8.3125 3.503906 -8.421875 4.140625 -8.421875 C 4.804688 -8.421875 5.410156 -8.304688 5.953125 -8.078125 C 6.492188 -7.859375 6.957031 -7.53125 7.34375 -7.09375 C 7.726562 -6.664062 8.03125 -6.140625 8.25 -5.515625 C 8.46875 -4.898438 8.578125 -4.203125 8.578125 -3.421875 Z M 6.515625 -5.03125 C 6.421875 -5.5625 6.144531 -5.984375 5.6875 -6.296875 C 5.238281 -6.617188 4.722656 -6.78125 4.140625 -6.78125 C 3.566406 -6.78125 3.050781 -6.617188 2.59375 -6.296875 C 2.132812 -5.984375 1.859375 -5.5625 1.765625 -5.03125 Z M 6.515625 -5.03125 "/></g></g></g><g fill="#1649ff" fill-opacity="1"><g transform="translate(464.763972, 43.715322)"><g><path d="M 7.796875 0 L 5.96875 0 L 5.96875 -5.078125 C 5.96875 -5.722656 5.847656 -6.164062 5.609375 -6.40625 C 5.367188 -6.65625 5.019531 -6.78125 4.5625 -6.78125 C 3.882812 -6.78125 3.332031 -6.503906 2.90625 -5.953125 C 2.476562 -5.410156 2.265625 -4.65625 2.265625 -3.6875 L 2.265625 0 L 0.4375 0 L 0.4375 -8.234375 L 2.265625 -8.234375 L 2.265625 -6.171875 C 2.441406 -6.878906 2.773438 -7.429688 3.265625 -7.828125 C 3.765625 -8.222656 4.378906 -8.421875 5.109375 -8.421875 C 5.953125 -8.421875 6.609375 -8.144531 7.078125 -7.59375 C 7.554688 -7.050781 7.796875 -6.210938 7.796875 -5.078125 Z M 7.796875 0 "/></g></g></g><g fill="#1649ff" fill-opacity="1"><g transform="translate(474.64132, 43.715322)"><g><path d="M 7.921875 -1.171875 C 7.390625 -0.640625 6.832031 -0.273438 6.25 -0.078125 C 5.664062 0.109375 5.03125 0.203125 4.34375 0.203125 C 3.65625 0.203125 3.03125 0.0976562 2.46875 -0.109375 C 1.90625 -0.316406 1.425781 -0.601562 1.03125 -0.96875 C 0.644531 -1.34375 0.347656 -1.796875 0.140625 -2.328125 C -0.0664062 -2.859375 -0.171875 -3.453125 -0.171875 -4.109375 C -0.171875 -4.734375 -0.0664062 -5.3125 0.140625 -5.84375 C 0.347656 -6.375 0.628906 -6.828125 0.984375 -7.203125 C 1.335938 -7.585938 1.753906 -7.882812 2.234375 -8.09375 C 2.722656 -8.3125 3.238281 -8.421875 3.78125 -8.421875 C 4.34375 -8.421875 4.832031 -8.300781 5.25 -8.0625 C 5.675781 -7.832031 5.984375 -7.492188 6.171875 -7.046875 L 6.171875 -8.234375 L 7.796875 -8.234375 L 7.796875 -4.40625 L 6.171875 -4.40625 C 6.171875 -5.125 5.96875 -5.695312 5.5625 -6.125 C 5.164062 -6.5625 4.648438 -6.78125 4.015625 -6.78125 C 3.765625 -6.78125 3.5 -6.726562 3.21875 -6.625 C 2.9375 -6.519531 2.679688 -6.359375 2.453125 -6.140625 C 2.222656 -5.929688 2.03125 -5.65625 1.875 -5.3125 C 1.71875 -4.976562 1.640625 -4.578125 1.640625 -4.109375 C 1.640625 -3.648438 1.710938 -3.253906 1.859375 -2.921875 C 2.003906 -2.585938 2.195312 -2.3125 2.4375 -2.09375 C 2.675781 -1.882812 2.957031 -1.722656 3.28125 -1.609375 C 3.613281 -1.503906 3.953125 -1.453125 4.296875 -1.453125 C 4.890625 -1.453125 5.40625 -1.539062 5.84375 -1.71875 C 6.289062 -1.90625 6.671875 -2.15625 6.984375 -2.46875 Z M 7.921875 -1.171875 "/></g></g></g><g fill="#1649ff" fill-opacity="1"><g transform="translate(484.518669, 43.715322)"><g><path d="M 1.671875 -3.421875 C 1.765625 -2.859375 2.035156 -2.390625 2.484375 -2.015625 C 2.929688 -1.640625 3.535156 -1.453125 4.296875 -1.453125 C 4.890625 -1.453125 5.40625 -1.539062 5.84375 -1.71875 C 6.289062 -1.90625 6.671875 -2.15625 6.984375 -2.46875 L 7.921875 -1.171875 C 7.390625 -0.640625 6.828125 -0.273438 6.234375 -0.078125 C 5.648438 0.109375 5.003906 0.203125 4.296875 0.203125 C 3.660156 0.203125 3.066406 0.0976562 2.515625 -0.109375 C 1.972656 -0.328125 1.5 -0.625 1.09375 -1 C 0.695312 -1.382812 0.382812 -1.835938 0.15625 -2.359375 C -0.0625 -2.878906 -0.171875 -3.460938 -0.171875 -4.109375 C -0.171875 -4.734375 -0.0664062 -5.304688 0.140625 -5.828125 C 0.347656 -6.359375 0.640625 -6.816406 1.015625 -7.203125 C 1.398438 -7.585938 1.859375 -7.882812 2.390625 -8.09375 C 2.921875 -8.3125 3.503906 -8.421875 4.140625 -8.421875 C 4.804688 -8.421875 5.410156 -8.304688 5.953125 -8.078125 C 6.492188 -7.859375 6.957031 -7.53125 7.34375 -7.09375 C 7.726562 -6.664062 8.03125 -6.140625 8.25 -5.515625 C 8.46875 -4.898438 8.578125 -4.203125 8.578125 -3.421875 Z M 6.515625 -5.03125 C 6.421875 -5.5625 6.144531 -5.984375 5.6875 -6.296875 C 5.238281 -6.617188 4.722656 -6.78125 4.140625 -6.78125 C 3.566406 -6.78125 3.050781 -6.617188 2.59375 -6.296875 C 2.132812 -5.984375 1.859375 -5.5625 1.765625 -5.03125 Z M 6.515625 -5.03125 "/></g></g></g><g fill="#1649ff" fill-opacity="1"><g transform="translate(346.235787, 64.71532)"><g><path d="M 8.453125 -4.109375 C 8.453125 -3.460938 8.347656 -2.878906 8.140625 -2.359375 C 7.941406 -1.835938 7.648438 -1.382812 7.265625 -1 C 6.890625 -0.625 6.4375 -0.328125 5.90625 -0.109375 C 5.375 0.0976562 4.78125 0.203125 4.125 0.203125 C 3.476562 0.203125 2.890625 0.0976562 2.359375 -0.109375 C 1.835938 -0.328125 1.382812 -0.625 1 -1 C 0.625 -1.382812 0.332031 -1.835938 0.125 -2.359375 C -0.0703125 -2.878906 -0.171875 -3.460938 -0.171875 -4.109375 C -0.171875 -4.734375 -0.0703125 -5.3125 0.125 -5.84375 C 0.332031 -6.375 0.625 -6.832031 1 -7.21875 C 1.382812 -7.601562 1.835938 -7.898438 2.359375 -8.109375 C 2.890625 -8.316406 3.476562 -8.421875 4.125 -8.421875 C 4.78125 -8.421875 5.375 -8.316406 5.90625 -8.109375 C 6.4375 -7.898438 6.890625 -7.601562 7.265625 -7.21875 C 7.648438 -6.832031 7.941406 -6.375 8.140625 -5.84375 C 8.347656 -5.3125 8.453125 -4.734375 8.453125 -4.109375 Z M 6.625 -4.109375 C 6.625 -4.484375 6.566406 -4.832031 6.453125 -5.15625 C 6.335938 -5.488281 6.171875 -5.773438 5.953125 -6.015625 C 5.734375 -6.253906 5.46875 -6.441406 5.15625 -6.578125 C 4.851562 -6.710938 4.507812 -6.78125 4.125 -6.78125 C 3.738281 -6.78125 3.390625 -6.710938 3.078125 -6.578125 C 2.773438 -6.441406 2.515625 -6.253906 2.296875 -6.015625 C 2.085938 -5.773438 1.925781 -5.488281 1.8125 -5.15625 C 1.695312 -4.832031 1.640625 -4.484375 1.640625 -4.109375 C 1.640625 -3.722656 1.695312 -3.367188 1.8125 -3.046875 C 1.925781 -2.734375 2.085938 -2.453125 2.296875 -2.203125 C 2.515625 -1.960938 2.773438 -1.773438 3.078125 -1.640625 C 3.390625 -1.515625 3.738281 -1.453125 4.125 -1.453125 C 4.507812 -1.453125 4.851562 -1.515625 5.15625 -1.640625 C 5.46875 -1.773438 5.734375 -1.960938 5.953125 -2.203125 C 6.171875 -2.453125 6.335938 -2.734375 6.453125 -3.046875 C 6.566406 -3.367188 6.625 -3.722656 6.625 -4.109375 Z M 6.625 -4.109375 "/></g></g></g><g fill="#1649ff" fill-opacity="1"><g transform="translate(356.113136, 64.71532)"><g><path d="M 7.796875 0 L 5.96875 0 L 5.96875 -5.078125 C 5.96875 -5.722656 5.847656 -6.164062 5.609375 -6.40625 C 5.367188 -6.65625 5.019531 -6.78125 4.5625 -6.78125 C 3.882812 -6.78125 3.332031 -6.503906 2.90625 -5.953125 C 2.476562 -5.410156 2.265625 -4.65625 2.265625 -3.6875 L 2.265625 0 L 0.4375 0 L 0.4375 -8.234375 L 2.265625 -8.234375 L 2.265625 -6.171875 C 2.441406 -6.878906 2.773438 -7.429688 3.265625 -7.828125 C 3.765625 -8.222656 4.378906 -8.421875 5.109375 -8.421875 C 5.953125 -8.421875 6.609375 -8.144531 7.078125 -7.59375 C 7.554688 -7.050781 7.796875 -6.210938 7.796875 -5.078125 Z M 7.796875 0 "/></g></g></g><g fill="#1649ff" fill-opacity="1"><g transform="translate(365.990485, 64.71532)"><g/></g></g><g fill="#1649ff" fill-opacity="1"><g transform="translate(375.867833, 64.71532)"><g><path d="M 8.796875 -11.53125 L 7 0 L 5.125 0 L 4.109375 -4.96875 L 3.109375 0 L 1.234375 0 L -0.5625 -11.53125 L 1.34375 -11.53125 L 2.40625 -3.765625 L 3.25 -8.234375 L 4.984375 -8.234375 L 5.796875 -3.765625 L 6.890625 -11.53125 Z M 8.796875 -11.53125 "/></g></g></g><g fill="#1649ff" fill-opacity="1"><g transform="translate(385.745182, 64.71532)"><g><path d="M 1.671875 -3.421875 C 1.765625 -2.859375 2.035156 -2.390625 2.484375 -2.015625 C 2.929688 -1.640625 3.535156 -1.453125 4.296875 -1.453125 C 4.890625 -1.453125 5.40625 -1.539062 5.84375 -1.71875 C 6.289062 -1.90625 6.671875 -2.15625 6.984375 -2.46875 L 7.921875 -1.171875 C 7.390625 -0.640625 6.828125 -0.273438 6.234375 -0.078125 C 5.648438 0.109375 5.003906 0.203125 4.296875 0.203125 C 3.660156 0.203125 3.066406 0.0976562 2.515625 -0.109375 C 1.972656 -0.328125 1.5 -0.625 1.09375 -1 C 0.695312 -1.382812 0.382812 -1.835938 0.15625 -2.359375 C -0.0625 -2.878906 -0.171875 -3.460938 -0.171875 -4.109375 C -0.171875 -4.734375 -0.0664062 -5.304688 0.140625 -5.828125 C 0.347656 -6.359375 0.640625 -6.816406 1.015625 -7.203125 C 1.398438 -7.585938 1.859375 -7.882812 2.390625 -8.09375 C 2.921875 -8.3125 3.503906 -8.421875 4.140625 -8.421875 C 4.804688 -8.421875 5.410156 -8.304688 5.953125 -8.078125 C 6.492188 -7.859375 6.957031 -7.53125 7.34375 -7.09375 C 7.726562 -6.664062 8.03125 -6.140625 8.25 -5.515625 C 8.46875 -4.898438 8.578125 -4.203125 8.578125 -3.421875 Z M 6.515625 -5.03125 C 6.421875 -5.5625 6.144531 -5.984375 5.6875 -6.296875 C 5.238281 -6.617188 4.722656 -6.78125 4.140625 -6.78125 C 3.566406 -6.78125 3.050781 -6.617188 2.59375 -6.296875 C 2.132812 -5.984375 1.859375 -5.5625 1.765625 -5.03125 Z M 6.515625 -5.03125 "/></g></g></g><g fill="#1649ff" fill-opacity="1"><g transform="translate(395.622531, 64.71532)"><g><path d="M 0.4375 -11.53125 L 2.265625 -11.53125 L 2.265625 -7.484375 C 2.609375 -7.796875 2.957031 -8.03125 3.3125 -8.1875 C 3.675781 -8.34375 4.085938 -8.421875 4.546875 -8.421875 C 5.078125 -8.421875 5.566406 -8.3125 6.015625 -8.09375 C 6.472656 -7.882812 6.863281 -7.585938 7.1875 -7.203125 C 7.507812 -6.828125 7.765625 -6.375 7.953125 -5.84375 C 8.140625 -5.3125 8.234375 -4.734375 8.234375 -4.109375 C 8.234375 -3.472656 8.140625 -2.890625 7.953125 -2.359375 C 7.765625 -1.835938 7.507812 -1.382812 7.1875 -1 C 6.863281 -0.625 6.472656 -0.328125 6.015625 -0.109375 C 5.566406 0.0976562 5.078125 0.203125 4.546875 0.203125 C 4.085938 0.203125 3.675781 0.117188 3.3125 -0.046875 C 2.957031 -0.210938 2.609375 -0.453125 2.265625 -0.765625 L 2.265625 0 L 0.4375 0 Z M 2.265625 -2.1875 C 2.484375 -1.945312 2.757812 -1.765625 3.09375 -1.640625 C 3.4375 -1.515625 3.765625 -1.453125 4.078125 -1.453125 C 4.765625 -1.453125 5.320312 -1.695312 5.75 -2.1875 C 6.1875 -2.675781 6.40625 -3.316406 6.40625 -4.109375 C 6.40625 -4.898438 6.1875 -5.539062 5.75 -6.03125 C 5.320312 -6.53125 4.765625 -6.78125 4.078125 -6.78125 C 3.765625 -6.78125 3.4375 -6.71875 3.09375 -6.59375 C 2.757812 -6.46875 2.484375 -6.285156 2.265625 -6.046875 Z M 2.265625 -2.1875 "/></g></g></g><g fill="#1649ff" fill-opacity="1"><g transform="translate(405.499879, 64.71532)"><g/></g></g><g fill="#1649ff" fill-opacity="1"><g transform="translate(415.377228, 64.71532)"><g><path d="M -0.03125 -2.375 C -0.03125 -2.851562 0.09375 -3.269531 0.34375 -3.625 C 0.601562 -3.988281 0.941406 -4.289062 1.359375 -4.53125 C 1.785156 -4.78125 2.269531 -4.960938 2.8125 -5.078125 C 3.363281 -5.203125 3.921875 -5.265625 4.484375 -5.265625 C 4.796875 -5.265625 5.0625 -5.257812 5.28125 -5.25 C 5.507812 -5.238281 5.738281 -5.21875 5.96875 -5.1875 L 5.96875 -5.515625 C 5.96875 -5.953125 5.800781 -6.273438 5.46875 -6.484375 C 5.132812 -6.691406 4.695312 -6.796875 4.15625 -6.796875 C 3.664062 -6.796875 3.160156 -6.726562 2.640625 -6.59375 C 2.128906 -6.457031 1.644531 -6.253906 1.1875 -5.984375 L 0.453125 -7.421875 C 0.992188 -7.734375 1.570312 -7.976562 2.1875 -8.15625 C 2.8125 -8.332031 3.46875 -8.421875 4.15625 -8.421875 C 4.601562 -8.421875 5.039062 -8.367188 5.46875 -8.265625 C 5.90625 -8.171875 6.296875 -8.007812 6.640625 -7.78125 C 6.992188 -7.550781 7.269531 -7.25 7.46875 -6.875 C 7.675781 -6.507812 7.78125 -6.054688 7.78125 -5.515625 L 7.78125 0 L 5.96875 0 L 5.96875 -1.203125 C 5.6875 -0.753906 5.265625 -0.40625 4.703125 -0.15625 C 4.140625 0.0820312 3.53125 0.203125 2.875 0.203125 C 2.476562 0.203125 2.097656 0.144531 1.734375 0.03125 C 1.378906 -0.0703125 1.070312 -0.234375 0.8125 -0.453125 C 0.5625 -0.671875 0.359375 -0.9375 0.203125 -1.25 C 0.046875 -1.570312 -0.03125 -1.945312 -0.03125 -2.375 Z M 3.34375 -1.4375 C 3.707031 -1.4375 4.046875 -1.476562 4.359375 -1.5625 C 4.671875 -1.65625 4.945312 -1.78125 5.1875 -1.9375 C 5.4375 -2.101562 5.628906 -2.300781 5.765625 -2.53125 C 5.898438 -2.757812 5.96875 -3.015625 5.96875 -3.296875 L 5.96875 -3.609375 C 5.6875 -3.648438 5.414062 -3.671875 5.15625 -3.671875 C 4.90625 -3.679688 4.679688 -3.6875 4.484375 -3.6875 C 3.585938 -3.6875 2.910156 -3.566406 2.453125 -3.328125 C 2.003906 -3.097656 1.78125 -2.8125 1.78125 -2.46875 C 1.78125 -1.78125 2.300781 -1.4375 3.34375 -1.4375 Z M 3.34375 -1.4375 "/></g></g></g><g fill="#1649ff" fill-opacity="1"><g transform="translate(425.254577, 64.71532)"><g><path d="M 7.796875 0 L 5.96875 0 L 5.96875 -5.078125 C 5.96875 -5.722656 5.847656 -6.164062 5.609375 -6.40625 C 5.367188 -6.65625 5.019531 -6.78125 4.5625 -6.78125 C 3.882812 -6.78125 3.332031 -6.503906 2.90625 -5.953125 C 2.476562 -5.410156 2.265625 -4.65625 2.265625 -3.6875 L 2.265625 0 L 0.4375 0 L 0.4375 -8.234375 L 2.265625 -8.234375 L 2.265625 -6.171875 C 2.441406 -6.878906 2.773438 -7.429688 3.265625 -7.828125 C 3.765625 -8.222656 4.378906 -8.421875 5.109375 -8.421875 C 5.953125 -8.421875 6.609375 -8.144531 7.078125 -7.59375 C 7.554688 -7.050781 7.796875 -6.210938 7.796875 -5.078125 Z M 7.796875 0 "/></g></g></g><g fill="#1649ff" fill-opacity="1"><g transform="translate(435.131926, 64.71532)"><g><path d="M 7.796875 0 L 5.96875 0 L 5.96875 -0.765625 C 5.613281 -0.453125 5.253906 -0.210938 4.890625 -0.046875 C 4.535156 0.117188 4.128906 0.203125 3.671875 0.203125 C 3.140625 0.203125 2.644531 0.0976562 2.1875 -0.109375 C 1.738281 -0.328125 1.347656 -0.625 1.015625 -1 C 0.691406 -1.382812 0.4375 -1.835938 0.25 -2.359375 C 0.0703125 -2.890625 -0.015625 -3.472656 -0.015625 -4.109375 C -0.015625 -4.734375 0.0703125 -5.3125 0.25 -5.84375 C 0.4375 -6.375 0.691406 -6.828125 1.015625 -7.203125 C 1.347656 -7.585938 1.738281 -7.882812 2.1875 -8.09375 C 2.644531 -8.3125 3.140625 -8.421875 3.671875 -8.421875 C 4.128906 -8.421875 4.535156 -8.34375 4.890625 -8.1875 C 5.253906 -8.03125 5.613281 -7.796875 5.96875 -7.484375 L 5.96875 -9.875 L 4.375 -9.875 L 4.375 -11.53125 L 7.796875 -11.53125 Z M 5.96875 -6.046875 C 5.75 -6.285156 5.46875 -6.46875 5.125 -6.59375 C 4.78125 -6.71875 4.453125 -6.78125 4.140625 -6.78125 C 3.453125 -6.78125 2.890625 -6.53125 2.453125 -6.03125 C 2.023438 -5.539062 1.8125 -4.898438 1.8125 -4.109375 C 1.8125 -3.316406 2.023438 -2.675781 2.453125 -2.1875 C 2.890625 -1.695312 3.453125 -1.453125 4.140625 -1.453125 C 4.453125 -1.453125 4.78125 -1.515625 5.125 -1.640625 C 5.46875 -1.765625 5.75 -1.945312 5.96875 -2.1875 Z M 5.96875 -6.046875 "/></g></g></g><g fill="#1649ff" fill-opacity="1"><g transform="translate(445.009274, 64.71532)"><g/></g></g><g fill="#1649ff" fill-opacity="1"><g transform="translate(454.886623, 64.71532)"><g><path d="M 7.9375 -3.15625 C 7.9375 -2.632812 7.847656 -2.164062 7.671875 -1.75 C 7.492188 -1.332031 7.25 -0.976562 6.9375 -0.6875 C 6.625 -0.394531 6.253906 -0.171875 5.828125 -0.015625 C 5.398438 0.128906 4.945312 0.203125 4.46875 0.203125 C 3.925781 0.203125 3.4375 0.109375 3 -0.078125 C 2.5625 -0.273438 2.1875 -0.597656 1.875 -1.046875 L 1.875 0 L 0.234375 0 L 0.234375 -3.765625 L 1.875 -3.765625 C 1.875 -3.390625 1.941406 -3.054688 2.078125 -2.765625 C 2.210938 -2.472656 2.390625 -2.226562 2.609375 -2.03125 C 2.828125 -1.832031 3.078125 -1.679688 3.359375 -1.578125 C 3.648438 -1.484375 3.957031 -1.4375 4.28125 -1.4375 C 4.832031 -1.4375 5.273438 -1.5625 5.609375 -1.8125 C 5.941406 -2.0625 6.109375 -2.460938 6.109375 -3.015625 C 6.109375 -3.304688 6.054688 -3.554688 5.953125 -3.765625 C 5.847656 -3.972656 5.703125 -4.15625 5.515625 -4.3125 C 5.328125 -4.476562 5.09375 -4.617188 4.8125 -4.734375 C 4.539062 -4.859375 4.226562 -4.988281 3.875 -5.125 C 3.457031 -5.269531 3.035156 -5.425781 2.609375 -5.59375 C 2.191406 -5.769531 1.816406 -5.988281 1.484375 -6.25 C 1.160156 -6.507812 0.894531 -6.828125 0.6875 -7.203125 C 0.476562 -7.585938 0.375 -8.070312 0.375 -8.65625 C 0.375 -9.15625 0.46875 -9.59375 0.65625 -9.96875 C 0.84375 -10.351562 1.085938 -10.675781 1.390625 -10.9375 C 1.703125 -11.195312 2.0625 -11.390625 2.46875 -11.515625 C 2.882812 -11.648438 3.320312 -11.71875 3.78125 -11.71875 C 4.3125 -11.71875 4.765625 -11.601562 5.140625 -11.375 C 5.523438 -11.15625 5.820312 -10.863281 6.03125 -10.5 L 6.03125 -11.53125 L 7.671875 -11.53125 L 7.671875 -7.9375 L 6.03125 -7.9375 C 6.03125 -8.613281 5.847656 -9.140625 5.484375 -9.515625 C 5.128906 -9.898438 4.65625 -10.09375 4.0625 -10.09375 C 3.53125 -10.09375 3.085938 -9.96875 2.734375 -9.71875 C 2.378906 -9.476562 2.203125 -9.132812 2.203125 -8.6875 C 2.203125 -8.457031 2.25 -8.257812 2.34375 -8.09375 C 2.4375 -7.9375 2.566406 -7.789062 2.734375 -7.65625 C 2.910156 -7.519531 3.128906 -7.394531 3.390625 -7.28125 C 3.660156 -7.164062 3.96875 -7.039062 4.3125 -6.90625 C 4.75 -6.75 5.179688 -6.570312 5.609375 -6.375 C 6.046875 -6.1875 6.429688 -5.953125 6.765625 -5.671875 C 7.109375 -5.390625 7.390625 -5.046875 7.609375 -4.640625 C 7.828125 -4.234375 7.9375 -3.738281 7.9375 -3.15625 Z M 7.9375 -3.15625 "/></g></g></g><g fill="#1649ff" fill-opacity="1"><g transform="translate(464.763972, 64.71532)"><g><path d="M 8.453125 -4.109375 C 8.453125 -3.460938 8.347656 -2.878906 8.140625 -2.359375 C 7.941406 -1.835938 7.648438 -1.382812 7.265625 -1 C 6.890625 -0.625 6.4375 -0.328125 5.90625 -0.109375 C 5.375 0.0976562 4.78125 0.203125 4.125 0.203125 C 3.476562 0.203125 2.890625 0.0976562 2.359375 -0.109375 C 1.835938 -0.328125 1.382812 -0.625 1 -1 C 0.625 -1.382812 0.332031 -1.835938 0.125 -2.359375 C -0.0703125 -2.878906 -0.171875 -3.460938 -0.171875 -4.109375 C -0.171875 -4.734375 -0.0703125 -5.3125 0.125 -5.84375 C 0.332031 -6.375 0.625 -6.832031 1 -7.21875 C 1.382812 -7.601562 1.835938 -7.898438 2.359375 -8.109375 C 2.890625 -8.316406 3.476562 -8.421875 4.125 -8.421875 C 4.78125 -8.421875 5.375 -8.316406 5.90625 -8.109375 C 6.4375 -7.898438 6.890625 -7.601562 7.265625 -7.21875 C 7.648438 -6.832031 7.941406 -6.375 8.140625 -5.84375 C 8.347656 -5.3125 8.453125 -4.734375 8.453125 -4.109375 Z M 6.625 -4.109375 C 6.625 -4.484375 6.566406 -4.832031 6.453125 -5.15625 C 6.335938 -5.488281 6.171875 -5.773438 5.953125 -6.015625 C 5.734375 -6.253906 5.46875 -6.441406 5.15625 -6.578125 C 4.851562 -6.710938 4.507812 -6.78125 4.125 -6.78125 C 3.738281 -6.78125 3.390625 -6.710938 3.078125 -6.578125 C 2.773438 -6.441406 2.515625 -6.253906 2.296875 -6.015625 C 2.085938 -5.773438 1.925781 -5.488281 1.8125 -5.15625 C 1.695312 -4.832031 1.640625 -4.484375 1.640625 -4.109375 C 1.640625 -3.722656 1.695312 -3.367188 1.8125 -3.046875 C 1.925781 -2.734375 2.085938 -2.453125 2.296875 -2.203125 C 2.515625 -1.960938 2.773438 -1.773438 3.078125 -1.640625 C 3.390625 -1.515625 3.738281 -1.453125 4.125 -1.453125 C 4.507812 -1.453125 4.851562 -1.515625 5.15625 -1.640625 C 5.46875 -1.773438 5.734375 -1.960938 5.953125 -2.203125 C 6.171875 -2.453125 6.335938 -2.734375 6.453125 -3.046875 C 6.566406 -3.367188 6.625 -3.722656 6.625 -4.109375 Z M 6.625 -4.109375 "/></g></g></g><g fill="#1649ff" fill-opacity="1"><g transform="translate(474.64132, 64.71532)"><g><path d="M 7.921875 -1.171875 C 7.390625 -0.640625 6.832031 -0.273438 6.25 -0.078125 C 5.664062 0.109375 5.03125 0.203125 4.34375 0.203125 C 3.65625 0.203125 3.03125 0.0976562 2.46875 -0.109375 C 1.90625 -0.316406 1.425781 -0.601562 1.03125 -0.96875 C 0.644531 -1.34375 0.347656 -1.796875 0.140625 -2.328125 C -0.0664062 -2.859375 -0.171875 -3.453125 -0.171875 -4.109375 C -0.171875 -4.734375 -0.0664062 -5.3125 0.140625 -5.84375 C 0.347656 -6.375 0.628906 -6.828125 0.984375 -7.203125 C 1.335938 -7.585938 1.753906 -7.882812 2.234375 -8.09375 C 2.722656 -8.3125 3.238281 -8.421875 3.78125 -8.421875 C 4.34375 -8.421875 4.832031 -8.300781 5.25 -8.0625 C 5.675781 -7.832031 5.984375 -7.492188 6.171875 -7.046875 L 6.171875 -8.234375 L 7.796875 -8.234375 L 7.796875 -4.40625 L 6.171875 -4.40625 C 6.171875 -5.125 5.96875 -5.695312 5.5625 -6.125 C 5.164062 -6.5625 4.648438 -6.78125 4.015625 -6.78125 C 3.765625 -6.78125 3.5 -6.726562 3.21875 -6.625 C 2.9375 -6.519531 2.679688 -6.359375 2.453125 -6.140625 C 2.222656 -5.929688 2.03125 -5.65625 1.875 -5.3125 C 1.71875 -4.976562 1.640625 -4.578125 1.640625 -4.109375 C 1.640625 -3.648438 1.710938 -3.253906 1.859375 -2.921875 C 2.003906 -2.585938 2.195312 -2.3125 2.4375 -2.09375 C 2.675781 -1.882812 2.957031 -1.722656 3.28125 -1.609375 C 3.613281 -1.503906 3.953125 -1.453125 4.296875 -1.453125 C 4.890625 -1.453125 5.40625 -1.539062 5.84375 -1.71875 C 6.289062 -1.90625 6.671875 -2.15625 6.984375 -2.46875 Z M 7.921875 -1.171875 "/></g></g></g><g fill="#1649ff" fill-opacity="1"><g transform="translate(484.518669, 64.71532)"><g><path d="M 5.234375 -9.296875 L 3 -9.296875 L 3 -11.53125 L 5.234375 -11.53125 Z M 6.90625 0 L 1.375 0 L 1.375 -1.640625 L 3.203125 -1.640625 L 3.203125 -6.578125 L 1.375 -6.578125 L 1.375 -8.234375 L 5.03125 -8.234375 L 5.03125 -1.640625 L 6.90625 -1.640625 Z M 6.90625 0 "/></g></g></g><g fill="#1649ff" fill-opacity="1"><g transform="translate(494.396018, 64.71532)"><g><path d="M -0.03125 -2.375 C -0.03125 -2.851562 0.09375 -3.269531 0.34375 -3.625 C 0.601562 -3.988281 0.941406 -4.289062 1.359375 -4.53125 C 1.785156 -4.78125 2.269531 -4.960938 2.8125 -5.078125 C 3.363281 -5.203125 3.921875 -5.265625 4.484375 -5.265625 C 4.796875 -5.265625 5.0625 -5.257812 5.28125 -5.25 C 5.507812 -5.238281 5.738281 -5.21875 5.96875 -5.1875 L 5.96875 -5.515625 C 5.96875 -5.953125 5.800781 -6.273438 5.46875 -6.484375 C 5.132812 -6.691406 4.695312 -6.796875 4.15625 -6.796875 C 3.664062 -6.796875 3.160156 -6.726562 2.640625 -6.59375 C 2.128906 -6.457031 1.644531 -6.253906 1.1875 -5.984375 L 0.453125 -7.421875 C 0.992188 -7.734375 1.570312 -7.976562 2.1875 -8.15625 C 2.8125 -8.332031 3.46875 -8.421875 4.15625 -8.421875 C 4.601562 -8.421875 5.039062 -8.367188 5.46875 -8.265625 C 5.90625 -8.171875 6.296875 -8.007812 6.640625 -7.78125 C 6.992188 -7.550781 7.269531 -7.25 7.46875 -6.875 C 7.675781 -6.507812 7.78125 -6.054688 7.78125 -5.515625 L 7.78125 0 L 5.96875 0 L 5.96875 -1.203125 C 5.6875 -0.753906 5.265625 -0.40625 4.703125 -0.15625 C 4.140625 0.0820312 3.53125 0.203125 2.875 0.203125 C 2.476562 0.203125 2.097656 0.144531 1.734375 0.03125 C 1.378906 -0.0703125 1.070312 -0.234375 0.8125 -0.453125 C 0.5625 -0.671875 0.359375 -0.9375 0.203125 -1.25 C 0.046875 -1.570312 -0.03125 -1.945312 -0.03125 -2.375 Z M 3.34375 -1.4375 C 3.707031 -1.4375 4.046875 -1.476562 4.359375 -1.5625 C 4.671875 -1.65625 4.945312 -1.78125 5.1875 -1.9375 C 5.4375 -2.101562 5.628906 -2.300781 5.765625 -2.53125 C 5.898438 -2.757812 5.96875 -3.015625 5.96875 -3.296875 L 5.96875 -3.609375 C 5.6875 -3.648438 5.414062 -3.671875 5.15625 -3.671875 C 4.90625 -3.679688 4.679688 -3.6875 4.484375 -3.6875 C 3.585938 -3.6875 2.910156 -3.566406 2.453125 -3.328125 C 2.003906 -3.097656 1.78125 -2.8125 1.78125 -2.46875 C 1.78125 -1.78125 2.300781 -1.4375 3.34375 -1.4375 Z M 3.34375 -1.4375 "/></g></g></g><g fill="#1649ff" fill-opacity="1"><g transform="translate(504.273367, 64.71532)"><g><path d="M 6.921875 0 L 1.390625 0 L 1.390625 -1.640625 L 3.203125 -1.640625 L 3.203125 -9.875 L 1.390625 -9.875 L 1.390625 -11.53125 L 5.03125 -11.53125 L 5.03125 -1.640625 L 6.921875 -1.640625 Z M 6.921875 0 "/></g></g></g><g fill="#1649ff" fill-opacity="1"><g transform="translate(514.150715, 64.71532)"><g/></g></g><g fill="#1649ff" fill-opacity="1"><g transform="translate(524.028064, 64.71532)"><g><path d="M 7.796875 0 L 5.96875 0 L 5.96875 -7.796875 L 4.8125 -3.65625 L 3.40625 -3.65625 L 2.265625 -7.796875 L 2.265625 0 L 0.4375 0 L 0.4375 -11.53125 L 2.609375 -11.53125 L 4.109375 -6.3125 L 5.609375 -11.53125 L 7.796875 -11.53125 Z M 7.796875 0 "/></g></g></g><g fill="#1649ff" fill-opacity="1"><g transform="translate(533.905413, 64.71532)"><g><path d="M 1.671875 -3.421875 C 1.765625 -2.859375 2.035156 -2.390625 2.484375 -2.015625 C 2.929688 -1.640625 3.535156 -1.453125 4.296875 -1.453125 C 4.890625 -1.453125 5.40625 -1.539062 5.84375 -1.71875 C 6.289062 -1.90625 6.671875 -2.15625 6.984375 -2.46875 L 7.921875 -1.171875 C 7.390625 -0.640625 6.828125 -0.273438 6.234375 -0.078125 C 5.648438 0.109375 5.003906 0.203125 4.296875 0.203125 C 3.660156 0.203125 3.066406 0.0976562 2.515625 -0.109375 C 1.972656 -0.328125 1.5 -0.625 1.09375 -1 C 0.695312 -1.382812 0.382812 -1.835938 0.15625 -2.359375 C -0.0625 -2.878906 -0.171875 -3.460938 -0.171875 -4.109375 C -0.171875 -4.734375 -0.0664062 -5.304688 0.140625 -5.828125 C 0.347656 -6.359375 0.640625 -6.816406 1.015625 -7.203125 C 1.398438 -7.585938 1.859375 -7.882812 2.390625 -8.09375 C 2.921875 -8.3125 3.503906 -8.421875 4.140625 -8.421875 C 4.804688 -8.421875 5.410156 -8.304688 5.953125 -8.078125 C 6.492188 -7.859375 6.957031 -7.53125 7.34375 -7.09375 C 7.726562 -6.664062 8.03125 -6.140625 8.25 -5.515625 C 8.46875 -4.898438 8.578125 -4.203125 8.578125 -3.421875 Z M 6.515625 -5.03125 C 6.421875 -5.5625 6.144531 -5.984375 5.6875 -6.296875 C 5.238281 -6.617188 4.722656 -6.78125 4.140625 -6.78125 C 3.566406 -6.78125 3.050781 -6.617188 2.59375 -6.296875 C 2.132812 -5.984375 1.859375 -5.5625 1.765625 -5.03125 Z M 6.515625 -5.03125 "/></g></g></g><g fill="#1649ff" fill-opacity="1"><g transform="translate(543.782762, 64.71532)"><g><path d="M 7.796875 0 L 5.96875 0 L 5.96875 -0.765625 C 5.613281 -0.453125 5.253906 -0.210938 4.890625 -0.046875 C 4.535156 0.117188 4.128906 0.203125 3.671875 0.203125 C 3.140625 0.203125 2.644531 0.0976562 2.1875 -0.109375 C 1.738281 -0.328125 1.347656 -0.625 1.015625 -1 C 0.691406 -1.382812 0.4375 -1.835938 0.25 -2.359375 C 0.0703125 -2.890625 -0.015625 -3.472656 -0.015625 -4.109375 C -0.015625 -4.734375 0.0703125 -5.3125 0.25 -5.84375 C 0.4375 -6.375 0.691406 -6.828125 1.015625 -7.203125 C 1.347656 -7.585938 1.738281 -7.882812 2.1875 -8.09375 C 2.644531 -8.3125 3.140625 -8.421875 3.671875 -8.421875 C 4.128906 -8.421875 4.535156 -8.34375 4.890625 -8.1875 C 5.253906 -8.03125 5.613281 -7.796875 5.96875 -7.484375 L 5.96875 -9.875 L 4.375 -9.875 L 4.375 -11.53125 L 7.796875 -11.53125 Z M 5.96875 -6.046875 C 5.75 -6.285156 5.46875 -6.46875 5.125 -6.59375 C 4.78125 -6.71875 4.453125 -6.78125 4.140625 -6.78125 C 3.453125 -6.78125 2.890625 -6.53125 2.453125 -6.03125 C 2.023438 -5.539062 1.8125 -4.898438 1.8125 -4.109375 C 1.8125 -3.316406 2.023438 -2.675781 2.453125 -2.1875 C 2.890625 -1.695312 3.453125 -1.453125 4.140625 -1.453125 C 4.453125 -1.453125 4.78125 -1.515625 5.125 -1.640625 C 5.46875 -1.765625 5.75 -1.945312 5.96875 -2.1875 Z M 5.96875 -6.046875 "/></g></g></g><g fill="#1649ff" fill-opacity="1"><g transform="translate(553.66011, 64.71532)"><g><path d="M 5.234375 -9.296875 L 3 -9.296875 L 3 -11.53125 L 5.234375 -11.53125 Z M 6.90625 0 L 1.375 0 L 1.375 -1.640625 L 3.203125 -1.640625 L 3.203125 -6.578125 L 1.375 -6.578125 L 1.375 -8.234375 L 5.03125 -8.234375 L 5.03125 -1.640625 L 6.90625 -1.640625 Z M 6.90625 0 "/></g></g></g><g fill="#1649ff" fill-opacity="1"><g transform="translate(563.537459, 64.71532)"><g><path d="M -0.03125 -2.375 C -0.03125 -2.851562 0.09375 -3.269531 0.34375 -3.625 C 0.601562 -3.988281 0.941406 -4.289062 1.359375 -4.53125 C 1.785156 -4.78125 2.269531 -4.960938 2.8125 -5.078125 C 3.363281 -5.203125 3.921875 -5.265625 4.484375 -5.265625 C 4.796875 -5.265625 5.0625 -5.257812 5.28125 -5.25 C 5.507812 -5.238281 5.738281 -5.21875 5.96875 -5.1875 L 5.96875 -5.515625 C 5.96875 -5.953125 5.800781 -6.273438 5.46875 -6.484375 C 5.132812 -6.691406 4.695312 -6.796875 4.15625 -6.796875 C 3.664062 -6.796875 3.160156 -6.726562 2.640625 -6.59375 C 2.128906 -6.457031 1.644531 -6.253906 1.1875 -5.984375 L 0.453125 -7.421875 C 0.992188 -7.734375 1.570312 -7.976562 2.1875 -8.15625 C 2.8125 -8.332031 3.46875 -8.421875 4.15625 -8.421875 C 4.601562 -8.421875 5.039062 -8.367188 5.46875 -8.265625 C 5.90625 -8.171875 6.296875 -8.007812 6.640625 -7.78125 C 6.992188 -7.550781 7.269531 -7.25 7.46875 -6.875 C 7.675781 -6.507812 7.78125 -6.054688 7.78125 -5.515625 L 7.78125 0 L 5.96875 0 L 5.96875 -1.203125 C 5.6875 -0.753906 5.265625 -0.40625 4.703125 -0.15625 C 4.140625 0.0820312 3.53125 0.203125 2.875 0.203125 C 2.476562 0.203125 2.097656 0.144531 1.734375 0.03125 C 1.378906 -0.0703125 1.070312 -0.234375 0.8125 -0.453125 C 0.5625 -0.671875 0.359375 -0.9375 0.203125 -1.25 C 0.046875 -1.570312 -0.03125 -1.945312 -0.03125 -2.375 Z M 3.34375 -1.4375 C 3.707031 -1.4375 4.046875 -1.476562 4.359375 -1.5625 C 4.671875 -1.65625 4.945312 -1.78125 5.1875 -1.9375 C 5.4375 -2.101562 5.628906 -2.300781 5.765625 -2.53125 C 5.898438 -2.757812 5.96875 -3.015625 5.96875 -3.296875 L 5.96875 -3.609375 C 5.6875 -3.648438 5.414062 -3.671875 5.15625 -3.671875 C 4.90625 -3.679688 4.679688 -3.6875 4.484375 -3.6875 C 3.585938 -3.6875 2.910156 -3.566406 2.453125 -3.328125 C 2.003906 -3.097656 1.78125 -2.8125 1.78125 -2.46875 C 1.78125 -1.78125 2.300781 -1.4375 3.34375 -1.4375 Z M 3.34375 -1.4375 "/></g></g></g><g fill="#1649ff" fill-opacity="1"><g transform="translate(130.193773, 57.965837)"><g><path d="M 25.25 0 L 6.296875 0 L 6.296875 -3.96875 L 13.453125 -3.96875 L 13.453125 -40.265625 L 6.296875 -40.265625 L 6.296875 -44.21875 L 25.25 -44.21875 L 25.25 -40.265625 L 18.125 -40.265625 L 18.125 -3.96875 L 25.25 -3.96875 Z M 25.25 0 "/></g></g></g></svg>